<?xml version="1.0" standalone="no"?>
<!DOCTYPE svg PUBLIC "-//W3C//DTD SVG 20010904//EN"
 "http://www.w3.org/TR/2001/REC-SVG-20010904/DTD/svg10.dtd">
<svg version="1.0" xmlns="http://www.w3.org/2000/svg"
 width="957.000000pt" height="957.000000pt" viewBox="0 0 957.000000 957.000000"
 preserveAspectRatio="xMidYMid meet">

<g transform="translate(0.000000,957.000000) scale(0.100000,-0.100000)"
fill="#000000" stroke="none">
<path d="M4535 9424 c-584 -34 -1182 -192 -1710 -450 -215 -104 -281 -141
-467 -259 -55 -34 -245 -165 -273 -187 -5 -4 -60 -47 -122 -96 -202 -159 -392
-338 -589 -558 -283 -314 -575 -762 -744 -1139 -225 -500 -341 -932 -412
-1530 -20 -170 -17 -740 6 -930 41 -350 100 -629 203 -950 164 -513 478 -1095
792 -1471 14 -17 44 -52 66 -79 179 -220 445 -479 690 -674 105 -84 335 -241
484 -330 103 -63 431 -233 506 -263 22 -9 78 -32 125 -51 104 -42 289 -107
390 -137 41 -12 95 -28 120 -35 102 -30 378 -87 536 -110 682 -99 1380 -39
2044 177 120 39 143 47 193 67 12 6 78 33 147 61 178 73 418 194 586 296 336
202 590 399 868 672 726 716 1181 1600 1340 2606 43 270 51 384 51 736 0 410
-18 596 -90 950 -37 184 -140 553 -176 635 -23 51 -111 272 -116 290 -8 28
-202 407 -243 475 -42 70 -95 154 -128 204 -15 21 -31 46 -37 56 -53 91 -251
348 -370 480 -426 474 -896 831 -1443 1096 -477 232 -957 368 -1507 429 -132
15 -590 27 -720 19z m720 -79 c544 -57 1019 -194 1510 -435 641 -315 1200
-781 1628 -1355 54 -71 102 -136 108 -143 10 -13 62 -95 176 -282 82 -133 237
-447 301 -610 158 -399 258 -797 307 -1225 22 -191 30 -630 16 -829 -86 -1172
-575 -2216 -1418 -3029 -97 -93 -247 -222 -339 -292 -43 -33 -85 -65 -92 -72
-26 -25 -330 -222 -435 -282 -994 -571 -2136 -741 -3251 -485 -276 63 -554
155 -801 267 -264 118 -644 338 -846 490 -243 182 -532 447 -705 647 -21 25
-41 47 -44 50 -22 20 -114 136 -195 245 -449 600 -741 1294 -859 2040 -68 425
-73 883 -16 1325 28 215 76 459 121 615 52 182 64 220 116 365 173 483 412
907 738 1315 143 179 206 248 374 414 487 478 1099 852 1749 1067 271 90 555
154 840 189 73 9 190 21 260 25 177 12 578 4 757 -15z"/>
<path d="M4585 9234 c-905 -54 -1699 -344 -2420 -884 -289 -217 -623 -545
-825 -810 -19 -25 -37 -47 -40 -50 -7 -7 -70 -98 -159 -230 -485 -718 -750
-1600 -751 -2492 0 -438 62 -864 187 -1288 158 -537 452 -1097 800 -1523 235
-288 504 -548 788 -763 92 -70 299 -209 365 -246 25 -14 74 -42 110 -63 669
-383 1514 -591 2281 -561 1189 47 2291 557 3090 1431 200 218 430 530 556 755
332 587 496 1076 584 1740 26 201 37 640 20 860 -65 857 -347 1626 -853 2330
-148 207 -412 497 -621 684 -38 33 -77 76 -87 96 -41 79 -148 165 -244 196
-28 9 -115 59 -192 110 -78 52 -144 94 -147 94 -3 0 -34 18 -69 39 -36 22
-132 73 -215 114 -480 241 -977 386 -1515 442 -144 15 -525 26 -643 19z
m-1153 -783 c40 -32 86 -130 98 -208 21 -132 -24 -279 -138 -453 -124 -190
-244 -328 -336 -386 -27 -17 -46 -37 -46 -47 0 -54 106 -204 207 -293 169
-150 344 -258 808 -498 116 -61 172 -143 197 -291 22 -136 -26 -221 -146 -256
-18 -5 -153 -6 -308 -3 l-277 7 -26 38 c-14 21 -64 112 -112 201 -131 246
-181 317 -322 458 -143 142 -212 197 -378 295 -201 121 -263 194 -263 312 0
115 58 191 321 418 98 86 203 183 233 218 30 34 67 76 81 92 27 30 75 102 174
260 89 143 166 188 233 136z m3960 -108 c78 -37 145 -101 178 -170 18 -38 21
-60 18 -118 -7 -127 -80 -225 -249 -330 -285 -178 -462 -349 -599 -582 -89
-150 -146 -286 -285 -678 -37 -104 -76 -208 -87 -230 -15 -29 -130 -204 -153
-233 -1 -1 -280 -2 -620 -2 -469 0 -624 3 -644 13 -53 25 -152 184 -191 307
-41 129 -48 272 -18 400 5 25 31 88 56 140 38 78 61 110 127 176 137 138 268
212 510 288 624 196 789 259 973 374 176 109 286 212 440 412 183 237 236 273
392 267 71 -2 97 -8 152 -34z m-2257 -53 c256 -29 706 -139 905 -223 207 -87
421 -205 420 -231 -1 -11 -52 -52 -133 -105 -101 -67 -403 -179 -769 -286
-130 -38 -346 -112 -412 -140 -120 -51 -276 -187 -360 -314 -120 -180 -164
-419 -116 -625 22 -95 49 -160 109 -261 22 -38 41 -75 41 -82 0 -10 -62 -13
-286 -13 l-286 0 5 23 c41 163 44 301 8 397 -40 107 -97 148 -401 297 -285
140 -431 241 -609 422 -134 136 -146 154 -129 185 7 13 62 79 123 146 184 204
242 290 313 458 42 99 85 148 163 188 71 35 117 48 303 84 86 16 193 39 237
50 43 11 125 24 181 29 148 12 587 13 693 1z m1943 -978 c99 -100 193 -238
276 -407 139 -280 201 -507 213 -778 l6 -137 -616 0 c-404 0 -618 4 -622 11
-4 5 7 35 24 67 81 150 125 251 180 407 131 379 224 573 384 802 40 57 76 103
80 103 4 0 38 -30 75 -68z m-4634 -251 c365 -169 744 -557 898 -919 15 -35 30
-77 33 -94 l7 -30 -651 3 c-563 4 -653 6 -661 19 -13 20 -12 156 0 245 24 166
66 292 181 543 45 97 88 196 96 220 8 23 19 42 25 42 5 0 38 -13 72 -29z
m5843 -1116 c52 -31 68 -76 66 -184 -1 -66 -8 -113 -21 -152 -16 -45 -152
-294 -222 -405 -25 -40 -70 -58 -143 -58 -66 -1 -70 0 -99 33 -38 43 -37 47
53 259 l72 167 7 130 c4 72 12 139 17 150 17 31 57 65 89 75 43 14 147 5 181
-15z m-2287 -11 c15 -10 33 -28 39 -41 7 -15 11 -127 11 -313 0 -160 2 -290 5
-290 2 0 25 13 51 30 71 45 139 64 224 64 200 -1 343 -120 403 -334 20 -70 21
-105 25 -557 l3 -481 -28 -31 c-63 -71 -266 -55 -287 22 -3 12 -6 194 -6 404
0 397 -8 510 -41 574 -60 119 -177 104 -294 -39 l-55 -66 0 -433 0 -433 -27
-30 c-59 -65 -247 -57 -284 12 -8 15 -11 278 -10 957 1 895 2 937 20 961 10
14 36 31 57 37 50 16 156 9 194 -13z m-1570 -122 c63 -31 62 -17 58 -807 -4
-690 -5 -712 -26 -788 -25 -90 -56 -148 -109 -199 -137 -133 -427 -130 -527 5
-18 24 -21 43 -21 127 0 84 3 102 21 127 34 46 71 50 140 15 74 -37 106 -44
137 -33 51 20 51 23 57 791 5 778 3 746 61 769 41 16 170 12 209 -7z m-3435
-11 c75 -35 92 -64 167 -283 265 -774 317 -926 326 -948 9 -25 10 -25 26 14 9
21 16 40 16 43 0 3 36 107 81 231 45 125 107 301 139 392 166 471 170 480 224
528 44 39 76 45 212 40 90 -2 114 -7 136 -23 61 -46 58 9 58 -934 0 -853 0
-861 -20 -881 -31 -31 -64 -40 -146 -40 -82 0 -125 16 -146 53 -10 17 -14 157
-18 601 l-5 579 -32 -94 c-43 -129 -196 -570 -283 -819 -40 -113 -77 -220 -83
-237 -19 -61 -49 -78 -141 -81 -97 -5 -147 12 -169 55 -8 15 -99 284 -203 596
l-189 568 -5 -578 c-3 -318 -9 -585 -13 -594 -17 -34 -80 -51 -172 -48 -83 4
-88 5 -116 37 l-29 32 0 843 0 843 23 44 c33 67 67 80 207 80 91 0 124 -4 155
-19z m2180 -450 c63 -33 79 -77 71 -196 -9 -132 -49 -163 -160 -127 -98 32
-131 12 -216 -129 l-40 -65 0 -397 c0 -437 -2 -452 -59 -481 -20 -11 -57 -16
-108 -16 -88 0 -136 21 -153 66 -15 39 -13 1269 2 1297 18 35 37 49 76 58 95
22 196 -7 214 -61 3 -9 19 -1 51 23 42 32 73 46 132 61 43 10 141 -6 190 -33z
m2072 24 c228 -43 380 -208 434 -470 28 -132 23 -397 -9 -516 -35 -131 -87
-225 -172 -309 -113 -113 -228 -160 -397 -160 -292 0 -489 167 -553 471 -27
130 -28 359 -1 485 35 165 96 281 192 367 135 123 313 169 506 132z m2343 -12
c125 -43 220 -153 266 -308 15 -53 18 -118 21 -544 3 -267 2 -495 -1 -507 -20
-80 -234 -93 -297 -18 -11 14 -15 98 -19 473 l-5 456 -27 57 c-30 64 -64 88
-126 88 -60 0 -124 -48 -203 -154 l-29 -39 0 -423 c0 -245 -4 -433 -10 -448
-5 -14 -24 -33 -42 -42 -40 -21 -147 -23 -201 -5 -70 24 -67 -4 -67 709 l0
640 28 30 c32 34 95 49 165 38 53 -9 82 -28 102 -67 l16 -30 32 27 c38 32 124
72 180 84 53 11 158 3 217 -17z m1191 13 c67 -15 158 -55 193 -85 65 -57 73
-226 14 -281 -31 -29 -76 -25 -133 11 -93 59 -193 76 -255 44 -37 -19 -50 -43
-50 -94 0 -64 32 -91 204 -175 179 -87 239 -138 288 -243 36 -76 48 -194 29
-285 -31 -147 -131 -264 -269 -315 -70 -25 -89 -28 -202 -28 -110 1 -134 4
-200 28 -93 34 -150 72 -172 117 -23 45 -25 178 -3 220 29 57 89 66 151 23 82
-55 155 -83 222 -83 108 0 162 40 162 121 0 63 -34 94 -185 169 -145 71 -220
125 -265 188 -94 132 -103 319 -22 465 91 163 291 246 493 203z m-5524 -1023
c59 -29 78 -78 78 -198 0 -73 -5 -108 -17 -130 -37 -69 -105 -101 -195 -92
-111 12 -152 61 -160 191 -9 145 29 224 121 247 46 12 131 3 173 -18z m-1103
-768 c23 -12 76 -15 276 -15 l247 0 7 -76 c13 -140 66 -228 175 -292 42 -25
55 -27 151 -27 95 0 110 3 156 27 28 15 72 50 97 78 50 55 73 112 83 204 l7
59 86 -7 c228 -16 702 -27 926 -22 260 7 296 3 303 -35 5 -25 -30 -61 -222
-232 -99 -88 -187 -167 -195 -174 -17 -18 -35 -12 -39 13 -10 78 -26 124 -53
157 -55 67 -187 116 -275 102 -89 -13 -156 -105 -156 -215 0 -73 22 -121 76
-164 76 -61 153 -74 245 -42 24 9 48 16 54 16 6 0 -58 -71 -143 -157 -402
-409 -703 -731 -722 -771 -23 -49 -110 -127 -176 -158 -47 -22 -57 -24 -89
-13 -85 28 -402 328 -510 484 -35 50 -66 95 -70 100 -15 19 -112 181 -200 335
-49 85 -129 223 -178 305 -109 186 -143 259 -151 328 -11 97 41 174 132 196
60 14 126 12 158 -4z m5357 -15 c68 -13 114 -45 139 -96 47 -95 21 -173 -160
-484 -39 -69 -104 -181 -143 -250 -267 -473 -383 -631 -608 -824 -201 -173
-256 -198 -336 -158 -48 25 -128 111 -149 161 -10 22 -14 52 -10 76 5 39 3 42
-87 135 -95 98 -150 157 -392 415 -77 83 -184 195 -237 251 -54 55 -98 105
-98 112 0 8 11 7 39 -3 77 -27 125 -29 175 -7 111 50 156 114 156 223 0 171
-117 252 -287 201 -117 -36 -180 -111 -197 -234 -4 -27 -12 -48 -18 -48 -6 0
-42 31 -82 69 -39 38 -123 114 -186 171 -120 106 -170 162 -170 191 0 41 16
43 363 41 302 -3 672 8 885 24 l82 7 0 -35 c0 -51 20 -148 36 -181 45 -86 155
-159 259 -172 101 -13 229 39 289 118 46 59 68 125 74 214 l5 83 106 -1 c58
-1 171 -4 251 -8 105 -5 153 -3 175 6 37 15 58 16 126 3z m-2717 -95 c13 -13
47 -82 76 -152 30 -71 75 -179 102 -242 27 -63 47 -116 45 -118 -2 -1 -29 6
-60 16 -96 33 -138 36 -193 11 -81 -35 -134 -98 -134 -157 1 -104 152 -233
272 -233 50 0 85 12 131 43 33 22 47 53 49 108 1 22 5 42 9 45 11 6 287 -558
469 -957 32 -71 52 -102 73 -114 67 -40 102 -200 56 -259 -45 -58 -214 -115
-402 -137 -111 -13 -471 -7 -637 11 -52 5 -231 19 -397 30 -317 21 -402 33
-469 68 -47 24 -54 37 -54 93 0 60 74 193 116 210 5 2 32 56 58 119 27 63 64
145 82 182 l34 67 43 -25 c209 -116 419 -69 457 102 29 126 -55 264 -217 359
-18 11 -33 23 -33 28 0 5 41 84 92 176 111 202 205 389 288 579 56 127 85 172
113 172 4 0 18 -11 31 -25z m3119 -857 c45 -35 86 -67 92 -71 5 -4 47 -35 93
-69 62 -46 82 -66 80 -81 -7 -44 -29 -44 -205 1 -91 23 -168 41 -170 39 -2 -3
55 -49 126 -102 112 -85 129 -101 120 -117 -5 -10 -15 -18 -22 -18 -15 0 -349
251 -354 266 -2 6 5 22 16 35 l19 24 167 -43 c92 -24 169 -41 171 -39 2 2 -53
45 -121 96 -69 51 -125 98 -125 105 0 11 19 36 28 36 2 0 40 -28 85 -62z
m-6090 -39 c29 -32 37 -85 15 -107 -22 -22 -36 -12 -47 33 -13 53 -45 68 -86
41 -23 -15 -25 -22 -25 -97 0 -94 -14 -127 -67 -164 -70 -47 -151 -27 -188 45
-20 39 -19 73 4 94 24 22 41 13 41 -20 0 -28 17 -65 34 -76 21 -14 62 -8 84
12 19 18 22 31 22 96 0 84 14 121 57 150 61 41 113 39 156 -7z m166 -224 c52
-60 65 -93 52 -134 -14 -44 -35 -70 -82 -99 -53 -33 -110 -30 -152 8 -19 17
-39 30 -43 30 -5 -1 -33 -23 -63 -51 -57 -51 -67 -55 -85 -26 -9 15 -3 24 34
55 37 31 116 100 260 230 33 30 43 28 79 -13z m5625 -4 c17 -19 16 -22 -30
-71 l-48 -51 47 -47 47 -46 44 43 c38 38 46 42 65 32 11 -7 21 -15 21 -18 0
-4 -19 -26 -41 -49 l-42 -43 54 -50 54 -50 52 51 c44 44 54 49 67 38 26 -20
19 -34 -46 -105 l-63 -67 -162 147 c-90 81 -163 155 -163 164 0 13 112 141
124 141 1 0 11 -9 20 -19z m-5366 -274 c62 -63 62 -63 43 -81 -20 -18 -22 -17
-72 28 l-53 47 -45 -45 -45 -46 42 -43 c47 -48 51 -63 21 -72 -16 -5 -30 2
-60 31 l-39 38 -50 -49 c-28 -27 -50 -54 -50 -60 0 -6 20 -30 45 -53 50 -46
56 -67 24 -77 -17 -6 -34 6 -87 58 l-66 66 44 48 c167 183 255 273 269 273 9
0 45 -28 79 -63z m5156 54 c3 -5 14 -56 23 -115 l17 -105 125 -43 c126 -43
146 -58 109 -82 -14 -8 -42 -2 -128 26 -60 20 -110 34 -110 30 0 -3 27 -36 61
-74 59 -67 71 -99 38 -106 -18 -3 -304 312 -304 336 0 39 38 23 97 -40 66 -71
63 -78 38 73 -7 42 -10 84 -7 93 7 17 32 22 41 7z m-4940 -245 c97 -81 98 -83
86 -105 -15 -29 -25 -27 -82 22 l-50 42 -39 -44 c-36 -40 -49 -71 -31 -71 4 0
22 -14 40 -31 24 -21 31 -35 27 -49 -9 -29 -31 -25 -79 15 l-43 35 -47 -58
-46 -57 52 -47 c45 -40 51 -49 42 -65 -6 -10 -16 -18 -23 -18 -18 0 -141 106
-141 121 0 8 39 60 86 117 48 56 105 124 128 151 49 59 66 76 73 76 3 0 24
-15 47 -34z m4706 -21 c20 -24 4 -45 -34 -45 -67 0 -95 -66 -62 -143 17 -42
90 -124 127 -142 62 -32 117 -9 138 57 13 41 31 42 49 4 23 -51 -62 -146 -129
-146 -70 1 -179 92 -229 193 -46 93 -37 166 26 216 31 25 96 28 114 6z m-4444
-178 c65 -44 97 -105 89 -167 -9 -60 -48 -131 -107 -190 -52 -53 -103 -75
-154 -67 -38 6 -144 73 -144 91 0 10 82 136 208 319 18 26 39 47 46 47 8 0 36
-15 62 -33z m4234 -180 c112 -169 136 -222 98 -222 -11 0 -60 63 -138 179
-115 172 -128 195 -113 209 21 21 47 -7 153 -166z m-269 57 c14 -17 109 -189
171 -310 31 -62 32 -94 4 -94 -9 0 -33 32 -55 73 -22 39 -44 79 -49 87 -8 13
-17 11 -63 -14 -30 -16 -58 -32 -63 -37 -5 -4 12 -46 38 -94 37 -69 45 -90 35
-101 -6 -8 -17 -14 -23 -14 -14 0 -17 6 -140 234 -75 139 -84 162 -72 174 23
23 39 9 76 -66 19 -39 41 -71 48 -71 18 -1 121 52 122 62 0 5 -15 35 -34 66
-44 76 -52 101 -35 112 20 12 25 11 40 -7z m-3713 -41 c6 -12 5 -46 -4 -93
-23 -131 -24 -131 59 -56 53 49 78 66 96 64 14 -2 26 -8 28 -14 2 -6 -40 -49
-94 -95 -54 -46 -104 -89 -111 -96 -6 -6 -30 -46 -53 -87 -22 -42 -44 -76 -48
-76 -4 0 -16 6 -26 14 -17 13 -16 17 25 92 39 72 45 90 61 214 10 74 19 138
19 143 0 15 40 6 48 -10z m3405 -161 c9 -8 17 -23 17 -34 0 -16 -5 -17 -40
-12 -21 4 -50 4 -63 0 -72 -18 -56 -186 27 -282 29 -33 39 -39 76 -39 33 0 47
6 65 27 13 15 25 33 27 40 4 11 8 11 21 -1 26 -21 20 -48 -17 -89 -33 -35 -38
-37 -95 -37 -57 0 -62 2 -101 40 -85 83 -136 256 -97 331 39 75 126 103 180
56z m-2971 -48 c65 -25 98 -65 98 -120 0 -53 -28 -113 -67 -144 -23 -18 -38
-21 -91 -18 l-63 3 -28 -70 c-16 -38 -33 -70 -40 -69 -27 2 -31 5 -31 20 0 9
12 49 26 88 14 39 43 119 64 178 59 164 56 161 132 132z m308 -123 c0 -9 -30
-107 -66 -218 -56 -170 -70 -203 -86 -203 -10 0 -21 6 -24 14 -5 13 106 376
127 418 11 20 49 12 49 -11z m2181 -24 c116 -78 158 -299 72 -379 -31 -28
-139 -72 -159 -64 -7 3 -29 58 -49 123 -20 65 -48 151 -61 192 -34 105 -33
116 19 134 67 23 138 21 178 -6z m-1936 -28 c44 -11 84 -24 89 -29 17 -17 -11
-58 -134 -200 l-120 -139 53 -15 c28 -8 64 -18 80 -21 20 -5 27 -13 27 -30 0
-13 -4 -26 -10 -30 -11 -7 -199 40 -213 54 -19 19 3 57 94 161 50 58 104 121
120 142 l29 36 -32 11 c-18 5 -52 15 -75 21 -30 7 -43 16 -43 28 0 24 21 43
40 37 8 -3 51 -14 95 -26z m1591 -79 c7 -30 24 -113 40 -185 15 -71 28 -146
28 -165 1 -31 -2 -35 -25 -38 -31 -4 -48 16 -158 181 -40 60 -75 107 -77 104
-2 -2 8 -62 22 -133 40 -191 40 -190 14 -197 -27 -7 -30 1 -64 168 -15 72 -34
158 -42 193 -18 72 -9 95 35 90 26 -3 65 -52 173 -215 23 -35 43 -61 45 -59 3
2 -10 70 -27 150 -17 81 -28 151 -25 157 4 5 17 9 28 7 18 -2 24 -14 33 -58z
m-1304 26 c48 -8 92 -17 98 -21 21 -13 8 -50 -47 -127 -125 -173 -164 -231
-160 -235 3 -2 38 -9 78 -16 70 -12 74 -14 77 -40 3 -25 0 -27 -30 -27 -18 0
-68 7 -111 15 -43 8 -81 15 -83 15 -2 0 -4 13 -4 28 0 26 14 49 162 255 26 37
48 71 48 76 0 5 -31 15 -70 21 -77 13 -86 20 -70 50 13 24 4 23 112 6z m340
-38 c9 -7 24 -47 33 -88 9 -41 30 -133 46 -203 37 -162 37 -169 2 -165 -23 3
-28 10 -38 56 -7 29 -14 54 -16 56 -4 4 -99 9 -125 7 -6 -1 -18 -26 -28 -56
-14 -47 -21 -55 -42 -55 -16 0 -24 6 -24 18 0 20 121 387 139 420 13 25 30 28
53 10z m512 -43 c10 -27 45 -126 77 -220 54 -160 56 -171 38 -179 -26 -12 -44
6 -59 60 -7 25 -19 48 -27 51 -7 3 -39 1 -70 -3 -61 -10 -56 -3 -77 -96 -5
-21 -12 -28 -31 -28 -17 0 -25 6 -25 18 0 17 27 153 49 247 6 22 18 74 27 115
21 93 20 92 52 88 21 -2 30 -13 46 -53z"/>
<path d="M5048 5060 c-118 -36 -177 -148 -185 -360 -8 -198 18 -314 87 -394
42 -48 88 -66 164 -66 113 0 191 62 232 186 16 49 19 88 19 229 0 187 -11 244
-62 323 -49 75 -160 111 -255 82z"/>
<path d="M3067 2896 c-61 -17 -95 -42 -120 -90 -41 -78 -30 -197 24 -279 16
-25 54 -62 85 -83 44 -30 66 -39 112 -42 51 -3 61 -1 99 27 89 65 143 168 143
275 0 48 -5 67 -25 97 -30 43 -107 84 -184 99 -66 12 -74 12 -134 -4z"/>
<path d="M6320 2876 c-98 -21 -168 -69 -194 -130 -18 -43 -7 -153 22 -216 30
-67 95 -136 147 -155 57 -22 104 -14 172 30 94 62 134 140 137 265 1 65 -3 81
-26 122 -45 76 -145 108 -258 84z"/>
<path d="M6759 2503 l-34 -38 38 34 c34 33 42 41 34 41 -2 0 -19 -17 -38 -37z"/>
<path d="M6639 2383 c-13 -17 -13 -17 6 -3 11 8 22 16 24 17 2 2 0 3 -6 3 -6
0 -17 -8 -24 -17z"/>
<path d="M6594 2338 l-19 -23 23 19 c21 18 27 26 19 26 -2 0 -12 -10 -23 -22z"/>
<path d="M6549 2297 c-43 -33 -81 -68 -78 -71 2 -2 26 16 54 40 46 41 60 59
24 31z"/>
<path d="M6409 2179 l-44 -41 48 37 c43 34 53 45 43 45 -2 0 -23 -18 -47 -41z"/>
<path d="M4905 2206 c-46 -20 -96 -66 -111 -103 -22 -51 -18 -120 10 -168 61
-103 247 -170 375 -135 26 7 59 26 79 46 32 32 34 38 28 82 -17 127 -190 293
-305 292 -25 -1 -59 -7 -76 -14z"/>
<path d="M1867 2257 l-57 -53 22 -21 c34 -30 56 -35 88 -18 37 19 60 52 60 86
0 25 -27 59 -46 59 -5 0 -35 -24 -67 -53z"/>
<path d="M2575 1509 c-107 -156 -107 -154 -24 -180 32 -10 42 -9 75 10 72 41
142 161 128 220 -8 32 -19 46 -55 72 l-27 19 -97 -141z"/>
<path d="M3360 1233 c-6 -15 -18 -47 -27 -70 -21 -57 -13 -73 37 -73 35 0 43
4 60 33 37 60 21 114 -37 131 -19 6 -25 2 -33 -21z"/>
<path d="M5770 1121 c-18 -5 -24 -13 -22 -27 5 -26 91 -296 96 -301 2 -3 25 4
50 16 55 24 70 54 63 127 -14 141 -88 213 -187 185z"/>
<path d="M4552 923 c-20 -53 -42 -127 -42 -140 0 -9 15 -13 51 -13 43 0 50 3
46 18 -3 9 -13 50 -22 90 -10 39 -18 72 -20 72 -1 0 -7 -12 -13 -27z"/>
<path d="M5041 888 c-6 -35 -14 -76 -17 -92 l-6 -29 46 5 c26 3 49 7 51 10 6
6 -47 168 -55 168 -4 0 -13 -28 -19 -62z"/>
</g>
</svg>
